<svg width="200" height="200" viewBox="0 0 200 200" fill="none" xmlns="http://www.w3.org/2000/svg">
<path d="M27.8249 41.7492L98.7855 12.354C99.5557 12.0278 100.444 12.0278 101.215 12.354L172.17 41.7492C173.469 42.2844 174.288 43.6096 174.214 45.0521C174.214 45.0878 173.785 53.3808 172.679 65.2826C171.573 77.1946 169.795 92.6899 167.07 107.186C165.248 116.861 163.022 126.076 160.218 133.579C158.613 137.871 156.831 141.607 154.713 144.604C153.419 146.419 151.676 148.33 149.573 150.41C147.47 152.474 145.006 154.691 142.316 156.98C136.939 161.557 130.659 166.44 124.666 170.931C112.673 179.902 101.817 187.303 101.797 187.313C100.706 188.062 99.294 188.062 98.2029 187.313C98.1881 187.308 93.5078 184.112 86.9069 179.387C80.2962 174.662 71.7748 168.398 64.0482 162.22C58.8939 158.096 54.105 154.029 50.4268 150.41C48.3237 148.33 46.5759 146.419 45.2874 144.604C43.1693 141.607 41.3821 137.871 39.7825 133.579C38.178 129.292 36.766 124.45 35.507 119.271C32.994 108.934 31.0883 97.2773 29.6516 86.293C26.7783 64.3397 25.7859 45.1031 25.7859 45.0521C25.7119 43.6096 26.5265 42.2844 27.8249 41.7492Z" fill="#02C39A"/>
<path d="M100.072 99.0921C109.574 99.0921 117.278 89.6762 117.278 78.0586C117.278 66.4409 114.751 57.025 100.072 57.025C85.3973 57.025 82.8661 66.4409 82.8661 78.0586C82.8661 89.6762 90.5696 99.0921 100.072 99.0921Z" fill="#121212"/>
<path d="M132.534 130.365C132.213 110.128 129.591 104.365 109.496 100.712C109.496 100.712 106.668 104.338 100.072 104.338C93.4807 104.338 90.652 100.712 90.652 100.712C70.7776 104.324 67.9947 110.005 67.6285 129.706C67.5964 131.318 67.5827 131.4 67.5781 131.212C67.5781 131.565 67.5781 132.21 67.5781 133.341C67.5781 133.341 72.3613 143.045 100.072 143.045C127.787 143.045 132.57 133.341 132.57 133.341C132.57 132.613 132.57 132.11 132.57 131.766C132.566 131.881 132.552 131.656 132.534 130.365Z" fill="#121212"/>
<path d="M70.7081 115.945C70.7038 115.272 70.6995 115.758 70.7081 115.945V115.945Z" fill="#02C39A"/>
<path d="M108.602 128.319H76.5323C75.73 128.319 75.0839 127.669 75.0839 126.866V119.685C75.0839 118.882 75.73 118.228 76.5323 118.228H111.005C111.035 118.215 111.065 118.206 111.087 118.193V116.675H76.5323C74.8757 116.675 73.54 118.024 73.54 119.685V126.866C73.54 128.527 74.8757 129.876 76.5323 129.876H108.602V128.319Z" fill="#02C39A"/>
<path d="M87.335 121.673L86.8363 120.845C86.6889 120.593 86.3419 120.545 86.0991 120.68L84.9412 121.343V120.181C84.9412 119.852 84.694 119.6 84.3644 119.6H83.458C83.1284 119.6 82.8812 119.852 82.8812 120.181V121.343L81.7277 120.68C81.4805 120.545 81.1335 120.593 80.9861 120.845L80.4917 121.673C80.3269 121.942 80.4093 122.271 80.6565 122.419L81.8101 123.082L80.6565 123.75C80.4093 123.893 80.3443 124.245 80.4917 124.492L80.9861 125.324C81.1509 125.572 81.4805 125.637 81.7277 125.489L82.8812 124.826V125.988C82.8812 126.318 83.1284 126.565 83.458 126.565H84.3644C84.694 126.565 84.9412 126.318 84.9412 125.988V124.826L86.0991 125.489C86.3419 125.637 86.6758 125.572 86.8363 125.324L87.335 124.492C87.4825 124.245 87.4131 123.893 87.1702 123.75L86.0123 123.082L87.1702 122.419C87.4131 122.271 87.4955 121.942 87.335 121.673Z" fill="#02C39A"/>
<path d="M97.175 121.673L96.6806 120.845C96.5332 120.593 96.1819 120.545 95.939 120.68L94.7855 121.343V120.181C94.7855 119.852 94.5339 119.6 94.2087 119.6H93.3023C92.9684 119.6 92.7255 119.852 92.7255 120.181V121.343L91.5676 120.68C91.3204 120.545 90.9778 120.593 90.8261 120.845L90.3317 121.673C90.1712 121.942 90.2493 122.271 90.4965 122.419L91.6544 123.082L90.4965 123.75C90.2493 123.893 90.1842 124.245 90.3317 124.492L90.8261 125.324C90.9909 125.572 91.3204 125.637 91.5676 125.489L92.7255 124.826V125.988C92.7255 126.318 92.9684 126.565 93.3023 126.565H94.2087C94.5339 126.565 94.7855 126.318 94.7855 125.988V124.826L95.939 125.489C96.1819 125.637 96.5158 125.572 96.6806 125.324L97.175 124.492C97.3224 124.245 97.2574 123.893 97.0102 123.75L95.8566 123.082L97.0102 122.419C97.2574 122.271 97.3398 121.942 97.175 121.673Z" fill="#02C39A"/>
<path d="M107.015 121.673L106.521 120.845C106.373 120.593 106.026 120.545 105.779 120.68L104.625 121.343V120.181C104.625 119.852 104.378 119.6 104.049 119.6H103.142C102.813 119.6 102.565 119.852 102.565 120.181V121.343L101.412 120.68C101.165 120.545 100.818 120.593 100.666 120.845L100.172 121.673C100.011 121.942 100.094 122.271 100.341 122.419L101.494 123.082L100.341 123.75C100.094 123.893 100.029 124.245 100.172 124.492L100.666 125.324C100.835 125.572 101.165 125.637 101.412 125.489L102.565 124.826V125.988C102.565 126.318 102.813 126.565 103.142 126.565H104.049C104.378 126.565 104.625 126.318 104.625 125.988V124.826L105.779 125.489C106.026 125.637 106.36 125.572 106.521 125.324L107.015 124.492C107.162 124.245 107.097 123.893 106.85 123.75L105.697 123.082L106.85 122.419C107.097 122.271 107.18 121.942 107.015 121.673Z" fill="#02C39A"/>
<path d="M118.264 132.543L119.149 126.45C118.568 126.142 118.178 125.526 118.178 124.819C118.178 123.8 119.002 122.972 120.012 122.972C121.027 122.972 121.851 123.8 121.851 124.819C121.851 125.526 121.456 126.142 120.879 126.45L121.76 132.543H118.264ZM124.141 115.417V120.153H115.923V115.417C115.923 113.141 117.766 111.284 120.034 111.284C122.293 111.284 124.141 113.141 124.141 115.417ZM127.658 120.153H126.808V115.417C126.808 111.657 123.768 108.6 120.034 108.6C116.291 108.6 113.251 111.657 113.251 115.417V120.153H112.401C111.95 120.153 111.542 120.339 111.243 120.634C111.13 120.747 111.039 120.873 110.961 121.016C110.836 121.25 110.766 121.515 110.766 121.801V133.419C110.766 133.701 110.836 133.97 110.961 134.2C111.039 134.343 111.13 134.468 111.243 134.581C111.542 134.88 111.95 135.063 112.401 135.063H127.658C128.564 135.063 129.297 134.325 129.297 133.419V121.801C129.297 120.89 128.564 120.153 127.658 120.153Z" fill="#02C39A"/>
</svg>
